# xmcd CD database file
#
# Track frame offsets:
#	150
#	28993
#	55533
#	75775
#	100891
#	126206
#	148945
#	173976
#	197901
#	221484
#	248007
#	291842
#	325230
#
# Disc length: 4737 seconds
#
# Revision: 1
# Processed by: cddbd v1.5.2PL0 Copyright (c) Steve Scherf et al.
# Submitted via: CDex 1.51
#
DISCID=bb127f0d
DTITLE=Tingvall Trio - in Concert
DYEAR=2013
DGENRE=Jazz
TTITLE0=Hjälten
TTITLE1=Nu djävlar
TTITLE2=Avsked
TTITLE3=Vägen
TTITLE4=Mustasch
TTITLE5=Movie
TTITLE6=Hajskraj
TTITLE7=Utsikt
TTITLE8=Valsang
TTITLE9=Mjau
TTITLE10=Trolldans-Monster
TTITLE11=Efter livet
TTITLE12=Nimis
EXTD=YEAR: 2013
EXTT0=
EXTT1=
EXTT2=
EXTT3=
EXTT4=
EXTT5=
EXTT6=
EXTT7=
EXTT8=
EXTT9=
EXTT10=
EXTT11=
EXTT12=
PLAYORDER=
